<?xml version="1.0" encoding="UTF-8" standalone="no"?>
<!DOCTYPE svg PUBLIC "-//W3C//DTD SVG 1.1//EN"
 "http://www.w3.org/Graphics/SVG/1.1/DTD/svg11.dtd">
<!-- Generated by graphviz version 2.40.1 (20161225.0304)
 -->
<!-- Title: dependencies Pages: 1 -->
<svg width="3272pt" height="284pt"
 viewBox="0.00 0.00 3272.00 284.00" xmlns="http://www.w3.org/2000/svg" xmlns:xlink="http://www.w3.org/1999/xlink">
<g id="graph0" class="graph" transform="scale(1 1) rotate(0) translate(4 280)">
<title>dependencies</title>
<polygon fill="#ffffff" stroke="transparent" points="-4,4 -4,-280 3268,-280 3268,4 -4,4"/>
<text text-anchor="start" x="1611.0091" y="-42.4" font-family="sans-serif" font-weight="bold" font-size="14.00" fill="#000000">Legend</text>
<polygon fill="#ffffb3" stroke="transparent" points="1398,-10 1398,-30 1418,-30 1418,-10 1398,-10"/>
<text text-anchor="start" x="1421.629" y="-15.4" font-family="sans-serif" font-size="14.00" fill="#000000"> &#160;Declarations</text>
<polygon fill="#8dd3c7" stroke="transparent" points="1511,-10 1511,-30 1531,-30 1531,-10 1511,-10"/>
<text text-anchor="start" x="1534.7251" y="-15.4" font-family="sans-serif" font-size="14.00" fill="#000000"> &#160;Module</text>
<polygon fill="#80b1d3" stroke="transparent" points="1597,-10 1597,-30 1617,-30 1617,-10 1597,-10"/>
<text text-anchor="start" x="1620.7812" y="-15.4" font-family="sans-serif" font-size="14.00" fill="#000000"> &#160;Bootstrap</text>
<polygon fill="#fdb462" stroke="transparent" points="1694,-10 1694,-30 1714,-30 1714,-10 1694,-10"/>
<text text-anchor="start" x="1717.6732" y="-15.4" font-family="sans-serif" font-size="14.00" fill="#000000"> &#160;Providers</text>
<polygon fill="#fb8072" stroke="transparent" points="1790,-10 1790,-30 1810,-30 1810,-10 1790,-10"/>
<text text-anchor="start" x="1813.7258" y="-15.4" font-family="sans-serif" font-size="14.00" fill="#000000"> &#160;Exports</text>
<g id="clust1" class="cluster">
<title>cluster_SenzingSdkModule</title>
<polygon fill="none" stroke="#000000" stroke-dasharray="1,5" points="8,-70 8,-268 3256,-268 3256,-70 8,-70"/>
</g>
<g id="clust2" class="cluster">
<title>cluster_SenzingSdkModule_declarations</title>
<polygon fill="none" stroke="#000000" points="2128,-78 2128,-130 3248,-130 3248,-78 2128,-78"/>
</g>
<g id="clust10" class="cluster">
<title>cluster_SenzingSdkModule_exports</title>
<polygon fill="none" stroke="#000000" points="1171,-208 1171,-260 2314,-260 2314,-208 1171,-208"/>
</g>
<g id="clust12" class="cluster">
<title>cluster_SenzingSdkModule_providers</title>
<polygon fill="none" stroke="#000000" points="16,-78 16,-130 2120,-130 2120,-78 16,-78"/>
</g>
<!-- SzConfigurationAboutComponent -->
<g id="node1" class="node">
<title>SzConfigurationAboutComponent</title>
<polygon fill="#ffffb3" stroke="#000000" points="3240.371,-122 3031.629,-122 3031.629,-86 3240.371,-86 3240.371,-122"/>
<text text-anchor="middle" x="3136" y="-99.8" font-family="Times,serif" font-size="14.00" fill="#000000">SzConfigurationAboutComponent</text>
</g>
<!-- SenzingSdkModule -->
<g id="node7" class="node">
<title>SenzingSdkModule</title>
<polygon fill="#8dd3c7" stroke="#000000" points="1768.4356,-187 1765.4356,-191 1744.4356,-191 1741.4356,-187 1641.5644,-187 1641.5644,-151 1768.4356,-151 1768.4356,-187"/>
<text text-anchor="middle" x="1705" y="-164.8" font-family="Times,serif" font-size="14.00" fill="#000000">SenzingSdkModule</text>
</g>
<!-- SzConfigurationAboutComponent&#45;&gt;SenzingSdkModule -->
<g id="edge1" class="edge">
<title>SzConfigurationAboutComponent&#45;&gt;SenzingSdkModule</title>
<path fill="none" stroke="#000000" d="M3136,-122.0449C3136,-143.6623 3136,-177 3136,-177 3136,-177 1778.3347,-177 1778.3347,-177"/>
<polygon fill="#000000" stroke="#000000" points="1778.3347,-173.5001 1768.3347,-177 1778.3347,-180.5001 1778.3347,-173.5001"/>
</g>
<!-- SzConfigurationComponent -->
<g id="node2" class="node">
<title>SzConfigurationComponent</title>
<polygon fill="#ffffb3" stroke="#000000" points="3013.8738,-122 2840.1262,-122 2840.1262,-86 3013.8738,-86 3013.8738,-122"/>
<text text-anchor="middle" x="2927" y="-99.8" font-family="Times,serif" font-size="14.00" fill="#000000">SzConfigurationComponent</text>
</g>
<!-- SzConfigurationComponent&#45;&gt;SenzingSdkModule -->
<g id="edge2" class="edge">
<title>SzConfigurationComponent&#45;&gt;SenzingSdkModule</title>
<path fill="none" stroke="#000000" d="M2927,-122.1289C2927,-142.5724 2927,-173 2927,-173 2927,-173 1778.5525,-173 1778.5525,-173"/>
<polygon fill="#000000" stroke="#000000" points="1778.5525,-169.5001 1768.5525,-173 1778.5525,-176.5001 1778.5525,-169.5001"/>
</g>
<!-- SzEntityDetailComponent -->
<g id="node3" class="node">
<title>SzEntityDetailComponent</title>
<polygon fill="#ffffb3" stroke="#000000" points="2821.7618,-122 2658.2382,-122 2658.2382,-86 2821.7618,-86 2821.7618,-122"/>
<text text-anchor="middle" x="2740" y="-99.8" font-family="Times,serif" font-size="14.00" fill="#000000">SzEntityDetailComponent</text>
</g>
<!-- SzEntityDetailComponent&#45;&gt;SenzingSdkModule -->
<g id="edge3" class="edge">
<title>SzEntityDetailComponent&#45;&gt;SenzingSdkModule</title>
<path fill="none" stroke="#000000" d="M2740,-122.1061C2740,-141.3391 2740,-169 2740,-169 2740,-169 1778.5738,-169 1778.5738,-169"/>
<polygon fill="#000000" stroke="#000000" points="1778.5739,-165.5001 1768.5738,-169 1778.5738,-172.5001 1778.5739,-165.5001"/>
</g>
<!-- SzPoweredByComponent -->
<g id="node4" class="node">
<title>SzPoweredByComponent</title>
<polygon fill="#ffffb3" stroke="#000000" points="2640.1456,-122 2479.8544,-122 2479.8544,-86 2640.1456,-86 2640.1456,-122"/>
<text text-anchor="middle" x="2560" y="-99.8" font-family="Times,serif" font-size="14.00" fill="#000000">SzPoweredByComponent</text>
</g>
<!-- SzPoweredByComponent&#45;&gt;SenzingSdkModule -->
<g id="edge4" class="edge">
<title>SzPoweredByComponent&#45;&gt;SenzingSdkModule</title>
<path fill="none" stroke="#000000" d="M2560,-122.2667C2560,-140.5552 2560,-166 2560,-166 2560,-166 1778.2174,-166 1778.2174,-166"/>
<polygon fill="#000000" stroke="#000000" points="1778.2174,-162.5001 1768.2174,-166 1778.2174,-169.5001 1778.2174,-162.5001"/>
</g>
<!-- SzSearchComponent -->
<g id="node5" class="node">
<title>SzSearchComponent</title>
<polygon fill="#ffffb3" stroke="#000000" points="2461.9173,-122 2328.0827,-122 2328.0827,-86 2461.9173,-86 2461.9173,-122"/>
<text text-anchor="middle" x="2395" y="-99.8" font-family="Times,serif" font-size="14.00" fill="#000000">SzSearchComponent</text>
</g>
<!-- SzSearchComponent&#45;&gt;SenzingSdkModule -->
<g id="edge5" class="edge">
<title>SzSearchComponent&#45;&gt;SenzingSdkModule</title>
<path fill="none" stroke="#000000" d="M2395,-122.0336C2395,-139.0597 2395,-162 2395,-162 2395,-162 1778.3691,-162 1778.3691,-162"/>
<polygon fill="#000000" stroke="#000000" points="1778.3691,-158.5001 1768.3691,-162 1778.3691,-165.5001 1778.3691,-158.5001"/>
</g>
<!-- SzSearchResultsComponent -->
<g id="node6" class="node">
<title>SzSearchResultsComponent</title>
<polygon fill="#ffffb3" stroke="#000000" points="2310.1386,-122 2135.8614,-122 2135.8614,-86 2310.1386,-86 2310.1386,-122"/>
<text text-anchor="middle" x="2223" y="-99.8" font-family="Times,serif" font-size="14.00" fill="#000000">SzSearchResultsComponent</text>
</g>
<!-- SzSearchResultsComponent&#45;&gt;SenzingSdkModule -->
<g id="edge6" class="edge">
<title>SzSearchResultsComponent&#45;&gt;SenzingSdkModule</title>
<path fill="none" stroke="#000000" d="M2220.9332,-122.0091C2220.9332,-138.0494 2220.9332,-159 2220.9332,-159 2220.9332,-159 1778.2635,-159 1778.2635,-159"/>
<polygon fill="#000000" stroke="#000000" points="1778.2636,-155.5001 1768.2635,-159 1778.2635,-162.5001 1778.2636,-155.5001"/>
</g>
<!-- SzConfigurationAboutComponent  -->
<g id="node8" class="node">
<title>SzConfigurationAboutComponent </title>
<polygon fill="#fb8072" stroke="#000000" points="2306.3713,-252 2093.6287,-252 2093.6287,-216 2306.3713,-216 2306.3713,-252"/>
<text text-anchor="middle" x="2200" y="-229.8" font-family="Times,serif" font-size="14.00" fill="#000000">SzConfigurationAboutComponent </text>
</g>
<!-- SenzingSdkModule&#45;&gt;SzConfigurationAboutComponent  -->
<g id="edge7" class="edge">
<title>SenzingSdkModule&#45;&gt;SzConfigurationAboutComponent </title>
<path fill="none" stroke="#000000" stroke-dasharray="5,2" d="M1768.4647,-180C1880.7609,-180 2102.7517,-180 2102.7517,-180 2102.7517,-180 2102.7517,-205.7181 2102.7517,-205.7181"/>
<polygon fill="#000000" stroke="#000000" points="2099.2518,-205.718 2102.7517,-215.7181 2106.2518,-205.7181 2099.2518,-205.718"/>
</g>
<!-- SzConfigurationComponent  -->
<g id="node9" class="node">
<title>SzConfigurationComponent </title>
<polygon fill="#fb8072" stroke="#000000" points="2075.8742,-252 1898.1258,-252 1898.1258,-216 2075.8742,-216 2075.8742,-252"/>
<text text-anchor="middle" x="1987" y="-229.8" font-family="Times,serif" font-size="14.00" fill="#000000">SzConfigurationComponent </text>
</g>
<!-- SenzingSdkModule&#45;&gt;SzConfigurationComponent  -->
<g id="edge8" class="edge">
<title>SenzingSdkModule&#45;&gt;SzConfigurationComponent </title>
<path fill="none" stroke="#000000" stroke-dasharray="5,2" d="M1768.3162,-184C1829.571,-184 1913.2043,-184 1913.2043,-184 1913.2043,-184 1913.2043,-205.9489 1913.2043,-205.9489"/>
<polygon fill="#000000" stroke="#000000" points="1909.7044,-205.9488 1913.2043,-215.9489 1916.7044,-205.9489 1909.7044,-205.9488"/>
</g>
<!-- SzEntityDetailComponent  -->
<g id="node10" class="node">
<title>SzEntityDetailComponent </title>
<polygon fill="#fb8072" stroke="#000000" points="1880.7618,-252 1713.2382,-252 1713.2382,-216 1880.7618,-216 1880.7618,-252"/>
<text text-anchor="middle" x="1797" y="-229.8" font-family="Times,serif" font-size="14.00" fill="#000000">SzEntityDetailComponent </text>
</g>
<!-- SenzingSdkModule&#45;&gt;SzEntityDetailComponent  -->
<g id="edge9" class="edge">
<title>SenzingSdkModule&#45;&gt;SzEntityDetailComponent </title>
<path fill="none" stroke="#000000" stroke-dasharray="5,2" d="M1740.7933,-187.1061C1740.7933,-187.1061 1740.7933,-205.991 1740.7933,-205.991"/>
<polygon fill="#000000" stroke="#000000" points="1737.2934,-205.9909 1740.7933,-215.991 1744.2934,-205.991 1737.2934,-205.9909"/>
</g>
<!-- SzPoweredByComponent  -->
<g id="node11" class="node">
<title>SzPoweredByComponent </title>
<polygon fill="#fb8072" stroke="#000000" points="1695.1453,-252 1530.8547,-252 1530.8547,-216 1695.1453,-216 1695.1453,-252"/>
<text text-anchor="middle" x="1613" y="-229.8" font-family="Times,serif" font-size="14.00" fill="#000000">SzPoweredByComponent </text>
</g>
<!-- SenzingSdkModule&#45;&gt;SzPoweredByComponent  -->
<g id="edge10" class="edge">
<title>SenzingSdkModule&#45;&gt;SzPoweredByComponent </title>
<path fill="none" stroke="#000000" stroke-dasharray="5,2" d="M1668.4276,-187.1061C1668.4276,-187.1061 1668.4276,-205.991 1668.4276,-205.991"/>
<polygon fill="#000000" stroke="#000000" points="1664.9277,-205.9909 1668.4276,-215.991 1671.9277,-205.991 1664.9277,-205.9909"/>
</g>
<!-- SzSearchComponent  -->
<g id="node12" class="node">
<title>SzSearchComponent </title>
<polygon fill="#fb8072" stroke="#000000" points="1512.4166,-252 1375.5834,-252 1375.5834,-216 1512.4166,-216 1512.4166,-252"/>
<text text-anchor="middle" x="1444" y="-229.8" font-family="Times,serif" font-size="14.00" fill="#000000">SzSearchComponent </text>
</g>
<!-- SenzingSdkModule&#45;&gt;SzSearchComponent  -->
<g id="edge11" class="edge">
<title>SenzingSdkModule&#45;&gt;SzSearchComponent </title>
<path fill="none" stroke="#000000" stroke-dasharray="5,2" d="M1641.5502,-184C1583.3685,-184 1506.1948,-184 1506.1948,-184 1506.1948,-184 1506.1948,-205.9489 1506.1948,-205.9489"/>
<polygon fill="#000000" stroke="#000000" points="1502.6949,-205.9488 1506.1948,-215.9489 1509.6949,-205.9489 1502.6949,-205.9488"/>
</g>
<!-- SzSearchResultsComponent  -->
<g id="node13" class="node">
<title>SzSearchResultsComponent </title>
<polygon fill="#fb8072" stroke="#000000" points="1357.1383,-252 1178.8617,-252 1178.8617,-216 1357.1383,-216 1357.1383,-252"/>
<text text-anchor="middle" x="1268" y="-229.8" font-family="Times,serif" font-size="14.00" fill="#000000">SzSearchResultsComponent </text>
</g>
<!-- SenzingSdkModule&#45;&gt;SzSearchResultsComponent  -->
<g id="edge12" class="edge">
<title>SenzingSdkModule&#45;&gt;SzSearchResultsComponent </title>
<path fill="none" stroke="#000000" stroke-dasharray="5,2" d="M1641.4911,-180C1527.1751,-180 1298.5432,-180 1298.5432,-180 1298.5432,-180 1298.5432,-205.7181 1298.5432,-205.7181"/>
<polygon fill="#000000" stroke="#000000" points="1295.0433,-205.718 1298.5432,-215.7181 1302.0433,-205.7181 1295.0433,-205.718"/>
</g>
<!-- SzDataSourceService -->
<g id="node14" class="node">
<title>SzDataSourceService</title>
<ellipse fill="#fdb462" stroke="#000000" cx="2017" cy="-104" rx="94.878" ry="18"/>
<text text-anchor="middle" x="2017" y="-99.8" font-family="Times,serif" font-size="14.00" fill="#000000">SzDataSourceService</text>
</g>
<!-- SzDataSourceService&#45;&gt;SenzingSdkModule -->
<g id="edge13" class="edge">
<title>SzDataSourceService&#45;&gt;SenzingSdkModule</title>
<path fill="none" stroke="#000000" d="M1998.999,-121.8373C1998.999,-136.5443 1998.999,-155 1998.999,-155 1998.999,-155 1778.4315,-155 1778.4315,-155"/>
<polygon fill="#000000" stroke="#000000" points="1778.4315,-151.5001 1768.4315,-155 1778.4314,-158.5001 1778.4315,-151.5001"/>
</g>
<!-- SzEntityTypeService -->
<g id="node15" class="node">
<title>SzEntityTypeService</title>
<ellipse fill="#fdb462" stroke="#000000" cx="1811" cy="-104" rx="93.1948" ry="18"/>
<text text-anchor="middle" x="1811" y="-99.8" font-family="Times,serif" font-size="14.00" fill="#000000">SzEntityTypeService</text>
</g>
<!-- SzEntityTypeService&#45;&gt;SenzingSdkModule -->
<g id="edge14" class="edge">
<title>SzEntityTypeService&#45;&gt;SenzingSdkModule</title>
<path fill="none" stroke="#000000" d="M1743.06,-116.5327C1743.06,-116.5327 1743.06,-140.8507 1743.06,-140.8507"/>
<polygon fill="#000000" stroke="#000000" points="1739.5601,-140.8506 1743.06,-150.8507 1746.5601,-140.8507 1739.5601,-140.8506"/>
</g>
<!-- SzMappingAttrService -->
<g id="node16" class="node">
<title>SzMappingAttrService</title>
<ellipse fill="#fdb462" stroke="#000000" cx="1600" cy="-104" rx="100.1375" ry="18"/>
<text text-anchor="middle" x="1600" y="-99.8" font-family="Times,serif" font-size="14.00" fill="#000000">SzMappingAttrService</text>
</g>
<!-- SzMappingAttrService&#45;&gt;SenzingSdkModule -->
<g id="edge15" class="edge">
<title>SzMappingAttrService&#45;&gt;SenzingSdkModule</title>
<path fill="none" stroke="#000000" d="M1670.9257,-116.8419C1670.9257,-116.8419 1670.9257,-140.5231 1670.9257,-140.5231"/>
<polygon fill="#000000" stroke="#000000" points="1667.4258,-140.523 1670.9257,-150.5231 1674.4258,-140.5231 1667.4258,-140.523"/>
</g>
<!-- SzMappingTemplateService -->
<g id="node17" class="node">
<title>SzMappingTemplateService</title>
<ellipse fill="#fdb462" stroke="#000000" cx="1361" cy="-104" rx="120.9655" ry="18"/>
<text text-anchor="middle" x="1361" y="-99.8" font-family="Times,serif" font-size="14.00" fill="#000000">SzMappingTemplateService</text>
</g>
<!-- SzMappingTemplateService&#45;&gt;SenzingSdkModule -->
<g id="edge16" class="edge">
<title>SzMappingTemplateService&#45;&gt;SenzingSdkModule</title>
<path fill="none" stroke="#000000" d="M1428.7622,-119.0258C1428.7622,-134.0696 1428.7622,-155 1428.7622,-155 1428.7622,-155 1631.6255,-155 1631.6255,-155"/>
<polygon fill="#000000" stroke="#000000" points="1631.6255,-158.5001 1641.6255,-155 1631.6254,-151.5001 1631.6255,-158.5001"/>
</g>
<!-- SzMessageBundleService -->
<g id="node18" class="node">
<title>SzMessageBundleService</title>
<ellipse fill="#fdb462" stroke="#000000" cx="1111" cy="-104" rx="111.1538" ry="18"/>
<text text-anchor="middle" x="1111" y="-99.8" font-family="Times,serif" font-size="14.00" fill="#000000">SzMessageBundleService</text>
</g>
<!-- SzMessageBundleService&#45;&gt;SenzingSdkModule -->
<g id="edge17" class="edge">
<title>SzMessageBundleService&#45;&gt;SenzingSdkModule</title>
<path fill="none" stroke="#000000" d="M1200.6288,-114.8662C1200.6288,-130.8949 1200.6288,-159 1200.6288,-159 1200.6288,-159 1631.6317,-159 1631.6317,-159"/>
<polygon fill="#000000" stroke="#000000" points="1631.6318,-162.5001 1641.6317,-159 1631.6317,-155.5001 1631.6318,-162.5001"/>
</g>
<!-- SzProjectHttpService -->
<g id="node19" class="node">
<title>SzProjectHttpService</title>
<ellipse fill="#fdb462" stroke="#000000" cx="888" cy="-104" rx="94.3331" ry="18"/>
<text text-anchor="middle" x="888" y="-99.8" font-family="Times,serif" font-size="14.00" fill="#000000">SzProjectHttpService</text>
</g>
<!-- SzProjectHttpService&#45;&gt;SenzingSdkModule -->
<g id="edge18" class="edge">
<title>SzProjectHttpService&#45;&gt;SenzingSdkModule</title>
<path fill="none" stroke="#000000" d="M888,-122.0336C888,-139.0597 888,-162 888,-162 888,-162 1631.5712,-162 1631.5712,-162"/>
<polygon fill="#000000" stroke="#000000" points="1631.5712,-165.5001 1641.5712,-162 1631.5712,-158.5001 1631.5712,-165.5001"/>
</g>
<!-- SzSearchHttpService -->
<g id="node20" class="node">
<title>SzSearchHttpService</title>
<ellipse fill="#fdb462" stroke="#000000" cx="683" cy="-104" rx="93.1716" ry="18"/>
<text text-anchor="middle" x="683" y="-99.8" font-family="Times,serif" font-size="14.00" fill="#000000">SzSearchHttpService</text>
</g>
<!-- SzSearchHttpService&#45;&gt;SenzingSdkModule -->
<g id="edge19" class="edge">
<title>SzSearchHttpService&#45;&gt;SenzingSdkModule</title>
<path fill="none" stroke="#000000" d="M683,-122.2667C683,-140.5552 683,-166 683,-166 683,-166 1631.4555,-166 1631.4555,-166"/>
<polygon fill="#000000" stroke="#000000" points="1631.4555,-169.5001 1641.4555,-166 1631.4554,-162.5001 1631.4555,-169.5001"/>
</g>
<!-- SzSearchService -->
<g id="node21" class="node">
<title>SzSearchService</title>
<ellipse fill="#fdb462" stroke="#000000" cx="496" cy="-104" rx="75.8373" ry="18"/>
<text text-anchor="middle" x="496" y="-99.8" font-family="Times,serif" font-size="14.00" fill="#000000">SzSearchService</text>
</g>
<!-- SzSearchService&#45;&gt;SenzingSdkModule -->
<g id="edge20" class="edge">
<title>SzSearchService&#45;&gt;SenzingSdkModule</title>
<path fill="none" stroke="#000000" d="M496,-122.1061C496,-141.3391 496,-169 496,-169 496,-169 1631.7011,-169 1631.7011,-169"/>
<polygon fill="#000000" stroke="#000000" points="1631.7012,-172.5001 1641.7011,-169 1631.7011,-165.5001 1631.7012,-172.5001"/>
</g>
<!-- SzServerErrorsService -->
<g id="node22" class="node">
<title>SzServerErrorsService</title>
<ellipse fill="#fdb462" stroke="#000000" cx="303" cy="-104" rx="98.9492" ry="18"/>
<text text-anchor="middle" x="303" y="-99.8" font-family="Times,serif" font-size="14.00" fill="#000000">SzServerErrorsService</text>
</g>
<!-- SzServerErrorsService&#45;&gt;SenzingSdkModule -->
<g id="edge21" class="edge">
<title>SzServerErrorsService&#45;&gt;SenzingSdkModule</title>
<path fill="none" stroke="#000000" d="M303,-122.1289C303,-142.5724 303,-173 303,-173 303,-173 1631.5763,-173 1631.5763,-173"/>
<polygon fill="#000000" stroke="#000000" points="1631.5764,-176.5001 1641.5763,-173 1631.5763,-169.5001 1631.5764,-176.5001"/>
</g>
<!-- SzSettingsService -->
<g id="node23" class="node">
<title>SzSettingsService</title>
<ellipse fill="#fdb462" stroke="#000000" cx="105" cy="-104" rx="80.5316" ry="18"/>
<text text-anchor="middle" x="105" y="-99.8" font-family="Times,serif" font-size="14.00" fill="#000000">SzSettingsService</text>
</g>
<!-- SzSettingsService&#45;&gt;SenzingSdkModule -->
<g id="edge22" class="edge">
<title>SzSettingsService&#45;&gt;SenzingSdkModule</title>
<path fill="none" stroke="#000000" d="M105,-122.0449C105,-143.6623 105,-177 105,-177 105,-177 1631.2907,-177 1631.2907,-177"/>
<polygon fill="#000000" stroke="#000000" points="1631.2908,-180.5001 1641.2907,-177 1631.2907,-173.5001 1631.2908,-180.5001"/>
</g>
</g>
</svg>
